Genre:Thriller / Comedie / Actiune
Language:English
IMDb:http://www.imdb.com/title/tt1013743/
Source:Extended.Cut.2010.BluRay
Subtitles: ROMANA


Format : Matroska
File size : 2.72 GiB
Duration : 1h 57mn
Overall bit rate : 3 320 Kbps


Video
Format settings, CABAC : Yes
Format settings, ReFrames : 4 frames
Codec ID : V_MPEG4/ISO/AVC
Duration : 1h 57mn
Bit rate : 3 000 Kbps
Width : 1 280 pixels
Height : 528 pixels
Display aspect ratio : 2.40:1
Frame rate mode : Variable
Frame rate : 24.000 fps
Color space : YUV
Chroma subsampling : 4:2:0
Bit depth : 8 bits
Scan type : Progressive
Bits/(Pixel*Frame) : 0.185
Stream size : 2.35 GiB (86%)
Writing library : x264 

Audio
ID : 2
Format : AC-3
Format/Info : Audio Coding 3
Mode extension : CM (complete main)
Codec ID : A_AC3
Duration : 1h 57mn
Bit rate mode : Constant
Bit rate : 384 Kbps
Channel(s) : 6 channels
Channel positions : Front: L C R, Side: L R, LFE
Sampling rate : 48.0 KHz
Bit depth : 16 bits
Video delay : -1mn 5s
Stream size : 322 MiB (12%)
Language : English



Plot
June Havens (Diaz) finds her everyday life tangled with that of a secret agent (Cruise) who has realized


================================== 
http://thepiratebay.org/user/hiest
==================================



